<svg xmlns:xlink="http://www.w3.org/1999/xlink" style="margin-right: 0.25rem;" class="inline-flex h-3.5 w-3.5 -mt-0.5" xmlns="http://www.w3.org/2000/svg" x="0px" y="0px" viewBox="0 0 41.869 41.869" stroke="currentColor" fill="currentColor" width="41.869"  height="41.869" >
                        <g stroke="#7C4EC4" fill="#7C4EC4">
                            <path d="M40.522,0.972c-1.294-1.296-3.396-1.296-4.693,0L27.936,9.12L10.375,3.355l-5.718,5.72l16.149,7.409L10.558,27.069c-0.253,0.252-0.486,0.505-0.692,0.756l-6.621-3.039l-2.872,2.871l7.626,4.714l1.941,1.942l5.062,7.556l2.662-2.663l-3.691-7.896c0.157-0.107,0.31-0.232,0.451-0.374l10.775-10.433l0.169,0.169l8.424,16.711l5.303-5.306l-6.352-18.779l-0.05-0.051l7.829-7.582C41.82,4.371,41.82,2.268,40.522,0.972z" stroke="#7C4EC4" fill="#7C4EC4"></path>
                        </g>
                    </svg>