<svg xmlns:xlink="http://www.w3.org/1999/xlink" class="h-3.5 w-4 justify-center inline-flex text-base-500 -mt-1 mr-1" xmlns="http://www.w3.org/2000/svg" viewBox="0 0 15 26" stroke="currentColor" width="15"  height="26" >
    <path fill="#444444" stroke="#444444" fill-rule="evenodd" d="M13.393 1.005L10.31 1C6.844 1 4.605 3.297 4.605 6.853v2.699H1.504a.485.485 0 00-.485.485v3.91c0 .268.217.485.485.485h3.1v9.866c0 .268.218.485.486.485h4.046a.485.485 0 00.485-.485v-9.866h3.625a.485.485 0 00.485-.485l.002-3.91a.486.486 0 00-.485-.485H9.62V7.264c0-1.1.262-1.658 1.694-1.658h2.078a.485.485 0 00.484-.485V1.49a.485.485 0 00-.484-.485z"></path>
</svg>